<svg width="165" height="36" viewBox="0 0 165 36" fill="none" xmlns="http://www.w3.org/2000/svg">
<path fillRule="evenodd" clipRule="evenodd" d="M9.06558 23.3307C7.78668 22.7337 5.78218 21.5771 4.7119 21.3392C5.12912 23.8764 6.30825 26.9452 7.13817 29.4264C8.50323 26.2783 9.86829 23.1348 11.2334 19.9867C11.4057 19.5949 11.5735 19.1985 11.7458 18.8067C12.4442 17.193 16.0768 17.762 14.6029 21.4325C12.7118 26.143 9.23338 34.4588 8.62568 34.8506C7.41481 35.6341 5.84567 35.5502 4.78446 34.5661C3.74139 33.6006 3.59173 32.36 3.12461 30.6624C2.35819 27.892 1.51466 24.9537 0.734624 22.1647C0.358212 20.8215 -0.353797 19.1658 0.208554 17.8133C0.389957 17.3749 0.666598 17.0111 1.01126 16.7406C2.20853 15.8031 3.1745 16.1902 4.36269 16.7499L10.5622 19.7395L9.07465 23.326L9.06558 23.3307ZM15.6687 26.6094L25.0835 31.306C27.1969 32.3647 32.7614 35.6994 34.9972 35.2983C40.14 34.3749 38.1083 29.3472 36.6843 26.2783L27.5506 6.84842C26.376 4.32524 25.0109 0.538138 21.8046 0.692048C19.1335 0.822637 18.1358 2.1845 17.2197 4.5631C16.3716 6.7598 14.9793 9.82866 13.9363 12.8929C12.9068 15.9197 16.2265 17.4542 17.6959 14.0215C18.6482 11.8015 18.5484 12.0254 19.4419 9.78202C21.0201 5.82236 21.5734 3.69095 23.4418 7.61796C24.6119 10.0012 29.5959 20.3318 32.4122 26.5488C34.0721 30.21 35.1877 31.6325 29.927 29.1186C28.4077 28.3911 27.1334 27.7614 25.6731 27.0292L17.1199 22.9063C16.6573 23.6012 15.7322 25.7653 15.6687 26.6094Z" fill="#0097FE"/>
<path fillRule="evenodd" clipRule="evenodd" d="M15.2467 21.9551L26.4755 27.4305L24.013 30.7652L13.6685 25.6163L15.2467 21.9551Z" fill="#0097FE"/>
<path d="M40.6886 11.9307H45.0106L48.3665 24.7331L51.6499 11.9307H55.0739L58.38 24.7331L61.7087 11.9307H66.0534L60.8561 30.3438H56.3936L53.3687 18.5861L50.3211 30.3438H45.8813L40.6841 11.9307H40.6886Z" fill="#0097FE"/>
<path d="M71.1552 16.6922C72.2436 16.6922 73.2096 16.8834 74.0622 17.2612C74.9148 17.6436 75.6268 18.152 76.1982 18.7909C76.7742 19.4299 77.2095 20.1761 77.5089 21.0249C77.8082 21.8738 77.9578 22.7692 77.9578 23.7067C77.9578 24.6441 77.8082 25.5443 77.5089 26.4024C77.2095 27.2606 76.7742 28.0162 76.1982 28.6598C75.6223 29.3081 74.9103 29.8211 74.0622 30.2035C73.2141 30.586 72.2436 30.7725 71.1552 30.7725C70.0668 30.7725 69.0872 30.5766 68.2618 30.1895C67.4364 29.8024 66.7426 29.2847 66.1847 28.6365C65.6269 27.9882 65.2052 27.2373 64.9195 26.3791C64.6383 25.521 64.4932 24.6301 64.4932 23.7067C64.4932 22.7832 64.6338 21.8971 64.9195 21.0483C65.2006 20.1994 65.6224 19.4485 66.1847 18.8003C66.7426 18.152 67.4364 17.6389 68.2618 17.2565C69.0872 16.8741 70.0532 16.6875 71.1552 16.6875V16.6922ZM71.2006 27.6244C71.7493 27.6244 72.221 27.5031 72.6064 27.2606C72.9919 27.0181 73.3048 26.7056 73.5407 26.3278C73.7765 25.9454 73.9488 25.5256 74.0622 25.0639C74.171 24.6022 74.2255 24.1544 74.2255 23.716C74.2255 23.2776 74.1756 22.8625 74.0713 22.4148C73.967 21.9717 73.7992 21.5613 73.5633 21.1882C73.3275 20.8151 73.0146 20.5072 72.6291 20.2647C72.2436 20.0222 71.7674 19.9009 71.2006 19.9009C70.6337 19.9009 70.1575 20.0222 69.772 20.2647C69.3865 20.5072 69.0736 20.8151 68.8378 21.1882C68.602 21.5613 68.4342 21.9717 68.3298 22.4148C68.2255 22.8625 68.1757 23.2916 68.1757 23.716C68.1757 24.1404 68.2301 24.6022 68.3435 25.0639C68.4523 25.5256 68.6246 25.9454 68.865 26.3278C69.1053 26.7103 69.4137 27.0181 69.7992 27.2606C70.1847 27.5031 70.6518 27.6244 71.2051 27.6244H71.2006Z" fill="#0097FE"/>
<path d="M78.9419 30.3432V17.079H82.5065V19.313C82.9146 18.5202 83.4543 17.8766 84.1255 17.3822C84.7967 16.8878 85.6266 16.6406 86.6198 16.6406H86.9282C87.037 16.6406 87.1504 16.65 87.2592 16.6639C87.3681 16.6639 87.4815 16.6733 87.5903 16.6873V20.4277C87.3862 20.4137 87.1957 20.3858 87.0234 20.3531C86.8511 20.3391 86.6833 20.3251 86.5155 20.3158C86.3477 20.3065 86.2026 20.3018 86.0801 20.3018C85.3092 20.3018 84.6879 20.3811 84.2162 20.5443C83.7446 20.7076 83.3817 20.9174 83.1278 21.174C82.8738 21.4305 82.7106 21.7103 82.6335 22.0135C82.5564 22.3119 82.5155 22.6104 82.5155 22.8996V30.3339H78.951L78.9419 30.3432Z" fill="#0097FE"/>
<path d="M88.2437 30.3438V11.9307H91.8082V21.501L95.6585 17.0796H100.429L95.3275 22.5691L100.593 30.3438H96.2708L92.8241 25.2695L91.8082 26.3375V30.3438H88.2437Z" fill="#0097FE"/>
<path d="M108.103 19.0942C108.479 19.1921 108.91 19.2994 109.391 19.4206C109.871 19.5419 110.361 19.6912 110.869 19.8684C111.372 20.0456 111.862 20.2601 112.334 20.512C112.806 20.7638 113.227 21.081 113.599 21.4728C113.971 21.8645 114.27 22.3263 114.497 22.8673C114.724 23.4083 114.837 24.0472 114.837 24.7748C114.837 25.7962 114.629 26.6777 114.211 27.4239C113.794 28.1701 113.25 28.7905 112.583 29.2802C111.912 29.7745 111.15 30.1383 110.293 30.3715C109.436 30.6047 108.565 30.7213 107.685 30.7213C105.545 30.7213 103.876 30.2036 102.679 29.1682C101.481 28.1328 100.806 26.7057 100.647 24.8914H104.239C104.348 25.7029 104.697 26.2719 105.277 26.6031C105.858 26.9342 106.733 27.1021 107.899 27.1021C108.81 27.1021 109.518 26.9669 110.012 26.687C110.506 26.4119 110.756 25.9921 110.756 25.4231C110.756 25.1013 110.688 24.8261 110.556 24.6069C110.42 24.3877 110.221 24.1965 109.953 24.0379C109.685 23.8747 109.345 23.7301 108.937 23.5995C108.529 23.4689 108.048 23.3243 107.495 23.1611C106.787 22.9512 106.039 22.7414 105.25 22.5315C104.461 22.3216 103.735 22.0231 103.064 21.6313C102.393 21.2442 101.844 20.7265 101.409 20.0783C100.973 19.43 100.76 18.5625 100.76 17.4805C100.76 16.4591 100.96 15.5776 101.364 14.8313C101.763 14.0851 102.293 13.4695 102.946 12.9844C103.599 12.4994 104.343 12.1356 105.178 11.8931C106.012 11.6506 106.869 11.5293 107.753 11.5293C108.919 11.5293 109.908 11.6879 110.719 12.005C111.531 12.3222 112.193 12.7466 112.715 13.2783C113.236 13.8146 113.622 14.4303 113.871 15.1345C114.121 15.8388 114.27 16.5803 114.32 17.3592H110.756C110.679 16.5337 110.384 15.96 109.88 15.6335C109.377 15.3117 108.62 15.1485 107.613 15.1485C106.778 15.1485 106.112 15.2931 105.617 15.5869C105.123 15.8807 104.874 16.2912 104.874 16.8275C104.874 17.1167 104.928 17.3685 105.041 17.5784C105.15 17.7883 105.327 17.9748 105.572 18.1381C105.817 18.3013 106.148 18.4552 106.565 18.5998C106.982 18.7444 107.499 18.9076 108.112 19.0848L108.103 19.0942Z" fill="#0097FE"/>
<path d="M118.488 17.0791L121.205 25.6281L123.921 17.0791H127.536L122.81 31.971C122.638 32.5213 122.465 33.0157 122.302 33.4541C122.139 33.8925 121.921 34.261 121.654 34.5595C121.386 34.858 121.023 35.0911 120.565 35.2497C120.107 35.413 119.504 35.4922 118.747 35.4922H116.103V32.6752H117.545C118.125 32.6752 118.543 32.54 118.797 32.2741C119.051 32.0083 119.246 31.6865 119.386 31.3134L114.851 17.0791H118.488Z" fill="#0097FE"/>
<path d="M128.07 17.079H131.635V18.343C132.093 17.8253 132.646 17.4102 133.299 17.1024C133.952 16.7945 134.728 16.6406 135.626 16.6406C136.524 16.6406 137.227 16.7852 137.834 17.079C138.442 17.3682 138.937 17.7646 139.322 18.259C139.707 18.7534 139.989 19.3177 140.161 19.9613C140.333 20.6003 140.42 21.2626 140.42 21.9388V30.3432H136.855V22.9089C136.855 22.5218 136.814 22.144 136.737 21.7803C136.66 21.4165 136.528 21.09 136.347 20.8102C136.166 20.5257 135.921 20.2971 135.612 20.1199C135.304 19.9427 134.914 19.8541 134.442 19.8541C133.921 19.8541 133.481 19.952 133.118 20.1432C132.755 20.3391 132.465 20.5816 132.243 20.8708C132.021 21.16 131.866 21.4911 131.771 21.8549C131.676 22.2187 131.631 22.5731 131.631 22.9089V30.3432H128.066V17.079H128.07Z" fill="#0097FE"/>
<path d="M147.835 27.5731C148.592 27.5731 149.231 27.3492 149.757 26.9061C150.283 26.4584 150.605 25.8894 150.714 25.1945H153.998C153.966 26.02 153.798 26.7709 153.49 27.4518C153.181 28.1327 152.76 28.7157 152.224 29.2008C151.689 29.6858 151.045 30.0636 150.302 30.3294C149.553 30.5953 148.732 30.7305 147.835 30.7305C146.732 30.7305 145.767 30.53 144.941 30.1242C144.116 29.7185 143.431 29.1821 142.9 28.5105C142.365 27.8389 141.962 27.0694 141.694 26.2019C141.426 25.3344 141.295 24.4389 141.295 23.5201C141.295 22.6013 141.44 21.7245 141.73 20.899C142.021 20.0735 142.451 19.3459 143.018 18.7116C143.585 18.082 144.284 17.5783 145.109 17.2052C145.934 16.8321 146.882 16.6455 147.957 16.6455C148.773 16.6455 149.553 16.7714 150.283 17.0233C151.018 17.2751 151.653 17.6296 152.197 18.0913C152.741 18.553 153.172 19.1081 153.494 19.7563C153.816 20.4046 153.984 21.1182 154.002 21.8924H150.673C150.546 21.2954 150.274 20.8057 149.857 20.4233C149.44 20.0408 148.891 19.8543 148.215 19.8543C147.649 19.8543 147.154 19.9709 146.742 20.2041C146.324 20.4373 145.98 20.7404 145.712 21.1042C145.445 21.468 145.245 21.8831 145.109 22.3448C144.973 22.8065 144.909 23.2636 144.909 23.716C144.909 24.1218 144.959 24.5508 145.064 25.0032C145.168 25.4556 145.331 25.8754 145.558 26.2532C145.785 26.6356 146.089 26.9481 146.465 27.1999C146.841 27.4518 147.299 27.5777 147.835 27.5777V27.5731Z" fill="#0097FE"/>
<path d="M160.039 22.0601C160.465 22.172 160.959 22.3119 161.526 22.4752C162.093 22.6384 162.633 22.8716 163.145 23.1794C163.658 23.4873 164.093 23.8977 164.456 24.406C164.819 24.9144 165 25.5767 165 26.3882C165 27.1344 164.846 27.7827 164.537 28.3424C164.229 28.9021 163.83 29.3591 163.331 29.7136C162.837 30.068 162.27 30.3385 161.644 30.5158C161.014 30.693 160.379 30.7816 159.73 30.7816C158.157 30.7816 156.928 30.3992 156.048 29.639C155.163 28.8787 154.66 27.8247 154.538 26.4815H157.608C157.671 27.0318 157.875 27.4189 158.22 27.6335C158.565 27.8527 159.095 27.9599 159.803 27.9599C160.306 27.9599 160.723 27.8667 161.055 27.6801C161.386 27.4936 161.549 27.237 161.549 26.9152C161.549 26.4628 161.358 26.1317 160.982 25.9218C160.606 25.7119 160.138 25.5254 159.59 25.3621C159.068 25.1989 158.519 25.0357 157.934 24.8631C157.354 24.6905 156.814 24.4527 156.329 24.1449C155.839 23.837 155.436 23.436 155.114 22.9416C154.792 22.4472 154.628 21.8036 154.628 21.0107C154.628 20.2645 154.773 19.6209 155.064 19.0799C155.354 18.5388 155.739 18.0818 156.22 17.718C156.701 17.3542 157.25 17.0837 157.862 16.9065C158.474 16.7292 159.104 16.6406 159.753 16.6406C160.619 16.6406 161.349 16.7526 161.948 16.9811C162.547 17.2096 163.036 17.5174 163.422 17.9185C163.807 18.315 164.093 18.772 164.284 19.2897C164.474 19.8074 164.583 20.3578 164.615 20.9408H161.59C161.544 20.4231 161.363 20.0453 161.059 19.8121C160.755 19.5789 160.297 19.4576 159.699 19.4576C159.227 19.4576 158.837 19.5556 158.528 19.7468C158.22 19.9427 158.066 20.1945 158.066 20.5023C158.066 20.9081 158.256 21.2253 158.633 21.4631C159.009 21.6963 159.476 21.8969 160.025 22.0601H160.039Z" fill="#0097FE"/>
</svg>
